HIERARCHY
ROOT Hips
{
	OFFSET 0.000000 71.427986 0.000000
	CHANNELS 6 Xposition Yposition Zposition Xrotation Yrotation Zrotation
	JOINT Pelvis
	{
		OFFSET 0.000000 0.000000 0.000000
		CHANNELS 3 Xrotation Yrotation Zrotation
		JOINT LeftUpLeg
		{
			OFFSET 6.797100 -2.508499 -1.318700
			CHANNELS 3 Xrotation Yrotation Zrotation
			JOINT LeftLeg
			{
				OFFSET 0.069008 -29.241863 0.690200
				CHANNELS 3 Xrotation Yrotation Zrotation
				JOINT LeftFoot
				{
					OFFSET -0.069008 -29.568123 -0.266800
					CHANNELS 3 Xrotation Yrotation Zrotation
					JOINT LeftToeBase
					{
						OFFSET 3.145500 -8.631000 16.059900
						CHANNELS 3 Xrotation Yrotation Zrotation
						End Site
						{
							OFFSET 0.000000 18.501587 0.000000
						}
					}
				}
			}
			JOINT Left_ShortSleeve
			{
				OFFSET 0.265923 -10.480953 1.153800
				CHANNELS 3 Xrotation Yrotation Zrotation
				End Site
				{
					OFFSET 1.725763 19.823879 0.000000
				}
			}
		}
		JOINT RightUpLeg
		{
			OFFSET -6.797100 -2.508499 -1.318700
			CHANNELS 3 Xrotation Yrotation Zrotation
			JOINT RightLeg
			{
				OFFSET -0.082453 -29.241932 0.688000
				CHANNELS 3 Xrotation Yrotation Zrotation
				JOINT RightFoot
				{
					OFFSET 0.082453 -29.568058 -0.264600
					CHANNELS 3 Xrotation Yrotation Zrotation
					JOINT RightToeBase
					{
						OFFSET -3.115300 -8.682800 16.113400
						CHANNELS 3 Xrotation Yrotation Zrotation
						End Site
						{
							OFFSET 0.000000 18.567114 0.000000
						}
					}
				}
			}
			JOINT Right_ShortSleeve
			{
				OFFSET -0.265923 -10.480953 1.153800
				CHANNELS 3 Xrotation Yrotation Zrotation
				End Site
				{
					OFFSET -1.725766 19.823910 0.000000
				}
			}
		}
	}
	JOINT Spine
	{
		OFFSET 0.000000 13.368103 0.470500
		CHANNELS 3 Xrotation Yrotation Zrotation
		JOINT Spine1
		{
			OFFSET 0.147000 13.837402 0.538800
			CHANNELS 3 Xrotation Yrotation Zrotation
			JOINT Spine2
			{
				OFFSET 0.168000 16.242897 -1.435500
				CHANNELS 3 Xrotation Yrotation Zrotation
				JOINT Neck
				{
					OFFSET 0.217200 18.631500 -1.679100
					CHANNELS 3 Xrotation Yrotation Zrotation
					JOINT Head
					{
						OFFSET 0.000000 6.599396 1.385900
						CHANNELS 3 Xrotation Yrotation Zrotation
						JOINT Hat
						{
							OFFSET -0.532200 27.220596 -10.096100
							CHANNELS 3 Xrotation Yrotation Zrotation
							End Site
							{
								OFFSET 0.000000 22.029861 0.000000
							}
						}
						JOINT HairD
						{
							OFFSET -10.777400 17.437393 -1.325900
							CHANNELS 3 Xrotation Yrotation Zrotation
							JOINT HairD1
							{
								OFFSET -3.290299 -11.051193 1.062200
								CHANNELS 3 Xrotation Yrotation Zrotation
								End Site
								{
									OFFSET 0.000000 11.579437 0.000000
								}
							}
						}
						JOINT HairB
						{
							OFFSET -10.777400 17.437393 1.467900
							CHANNELS 3 Xrotation Yrotation Zrotation
							JOINT HairB1
							{
								OFFSET -1.561200 -12.956299 3.590200
								CHANNELS 3 Xrotation Yrotation Zrotation
								End Site
								{
									OFFSET 0.000000 13.534866 0.000000
								}
							}
						}
						JOINT HairA
						{
							OFFSET 9.713100 17.437393 1.467900
							CHANNELS 3 Xrotation Yrotation Zrotation
							JOINT HairA1
							{
								OFFSET 1.561200 -12.956299 3.590200
								CHANNELS 3 Xrotation Yrotation Zrotation
								End Site
								{
									OFFSET 0.000000 13.534866 0.000000
								}
							}
						}
						JOINT HairC
						{
							OFFSET 9.713100 17.437393 -1.325900
							CHANNELS 3 Xrotation Yrotation Zrotation
							JOINT HairC1
							{
								OFFSET 3.290300 -11.051193 1.062200
								CHANNELS 3 Xrotation Yrotation Zrotation
								End Site
								{
									OFFSET 0.000000 11.579437 0.000000
								}
							}
						}
					}
				}
				JOINT LeftShoulder
				{
					OFFSET 5.101800 15.108002 -2.763700
					CHANNELS 3 Xrotation Yrotation Zrotation
					JOINT LeftArm
					{
						OFFSET 9.825497 2.506317 -1.597400
						CHANNELS 3 Xrotation Yrotation Zrotation
						JOINT LeftForeArm
						{
							OFFSET 21.966244 0.000000 0.000000
							CHANNELS 3 Xrotation Yrotation Zrotation
							JOINT LeftHand
							{
								OFFSET 33.879036 0.000000 0.000000
								CHANNELS 3 Xrotation Yrotation Zrotation
								JOINT LeftHandThumb1
								{
									OFFSET 6.715286 -2.359680 3.363841
									CHANNELS 3 Xrotation Yrotation Zrotation
									JOINT LeftHandThumb2
									{
										OFFSET 2.507072 -1.447464 1.447461
										CHANNELS 3 Xrotation Yrotation Zrotation
										JOINT LeftHandThumb3
										{
											OFFSET 2.898338 -1.673355 1.673357
											CHANNELS 3 Xrotation Yrotation Zrotation
											End Site
											{
												OFFSET -0.295959 3.727692 -0.131651
											}
										}
									}
								}
								JOINT LeftHandIndex1
								{
									OFFSET 14.190811 -0.254547 3.840278
									CHANNELS 3 Xrotation Yrotation Zrotation
									JOINT LeftHandIndex2
									{
										OFFSET 3.551727 0.000000 -0.000000
										CHANNELS 3 Xrotation Yrotation Zrotation
										JOINT LeftHandIndex3
										{
											OFFSET 2.894196 0.000000 0.000000
											CHANNELS 3 Xrotation Yrotation Zrotation
											End Site
											{
												OFFSET -1.000603 2.690872 0.366626
											}
										}
									}
								}
								JOINT LeftHandMiddle1
								{
									OFFSET 13.776489 0.000000 0.000000
									CHANNELS 3 Xrotation Yrotation Zrotation
									JOINT LeftHandMiddle2
									{
										OFFSET 3.438232 0.000000 0.000000
										CHANNELS 3 Xrotation Yrotation Zrotation
										JOINT LeftHandMiddle3
										{
											OFFSET 3.691551 0.000000 0.000000
											CHANNELS 3 Xrotation Yrotation Zrotation
											End Site
											{
												OFFSET -1.082298 3.499527 0.457670
											}
										}
									}
								}
								JOINT LeftHandRing1
								{
									OFFSET 13.966164 -0.268127 -3.067488
									CHANNELS 3 Xrotation Yrotation Zrotation
									JOINT LeftHandRing2
									{
										OFFSET 3.162567 0.000000 0.000000
										CHANNELS 3 Xrotation Yrotation Zrotation
										JOINT LeftHandRing3
										{
											OFFSET 3.324348 0.000000 0.000000
											CHANNELS 3 Xrotation Yrotation Zrotation
											End Site
											{
												OFFSET -0.861900 3.184998 0.405154
											}
										}
									}
								}
								JOINT LeftHandPinky1
								{
									OFFSET 13.131393 -0.168503 -5.746925
									CHANNELS 3 Xrotation Yrotation Zrotation
									JOINT LeftHandPinky2
									{
										OFFSET 2.849182 0.000000 0.000000
										CHANNELS 3 Xrotation Yrotation Zrotation
										JOINT LeftHandPinky3
										{
											OFFSET 2.805038 0.000000 0.000000
											CHANNELS 3 Xrotation Yrotation Zrotation
											End Site
											{
												OFFSET -0.882500 2.642609 0.325652
											}
										}
									}
								}
							}
							JOINT Left_Sleeve
							{
								OFFSET 6.592125 -0.646545 0.805568
								CHANNELS 3 Xrotation Yrotation Zrotation
								End Site
								{
									OFFSET -0.000179 20.275787 -0.000000
								}
							}
						}
					}
				}
				JOINT RightShoulder
				{
					OFFSET -5.731700 15.108002 -2.763700
					CHANNELS 3 Xrotation Yrotation Zrotation
					JOINT RightArm
					{
						OFFSET -9.825497 2.506317 -1.597400
						CHANNELS 3 Xrotation Yrotation Zrotation
						JOINT RightForeArm
						{
							OFFSET -21.966242 0.000000 0.000000
							CHANNELS 3 Xrotation Yrotation Zrotation
							JOINT RightHand
							{
								OFFSET -33.879032 0.000000 0.000000
								CHANNELS 3 Xrotation Yrotation Zrotation
								JOINT RightHandThumb1
								{
									OFFSET -6.715286 -2.359680 3.363841
									CHANNELS 3 Xrotation Yrotation Zrotation
									JOINT RightHandThumb2
									{
										OFFSET -2.507072 -1.447464 1.447461
										CHANNELS 3 Xrotation Yrotation Zrotation
										JOINT RightHandThumb3
										{
											OFFSET -2.898338 -1.673355 1.673357
											CHANNELS 3 Xrotation Yrotation Zrotation
											End Site
											{
												OFFSET 0.295959 3.727692 -0.131651
											}
										}
									}
								}
								JOINT RightHandIndex1
								{
									OFFSET -14.190811 -0.254547 3.840278
									CHANNELS 3 Xrotation Yrotation Zrotation
									JOINT RightHandIndex2
									{
										OFFSET -3.551727 0.000000 -0.000000
										CHANNELS 3 Xrotation Yrotation Zrotation
										JOINT RightHandIndex3
										{
											OFFSET -2.894196 0.000000 0.000000
											CHANNELS 3 Xrotation Yrotation Zrotation
											End Site
											{
												OFFSET 1.000603 2.690872 0.366626
											}
										}
									}
								}
								JOINT RightHandMiddle1
								{
									OFFSET -13.776489 0.000000 0.000000
									CHANNELS 3 Xrotation Yrotation Zrotation
									JOINT RightHandMiddle2
									{
										OFFSET -3.438232 0.000000 0.000000
										CHANNELS 3 Xrotation Yrotation Zrotation
										JOINT RightHandMiddle3
										{
											OFFSET -3.691551 0.000000 0.000000
											CHANNELS 3 Xrotation Yrotation Zrotation
											End Site
											{
												OFFSET 1.082298 3.499527 0.457670
											}
										}
									}
								}
								JOINT RightHandRing1
								{
									OFFSET -13.966164 -0.268127 -3.067488
									CHANNELS 3 Xrotation Yrotation Zrotation
									JOINT RightHandRing2
									{
										OFFSET -3.162567 0.000000 0.000000
										CHANNELS 3 Xrotation Yrotation Zrotation
										JOINT RightHandRing3
										{
											OFFSET -3.324348 0.000000 0.000000
											CHANNELS 3 Xrotation Yrotation Zrotation
											End Site
											{
												OFFSET 0.861900 3.184998 0.405154
											}
										}
									}
								}
								JOINT RightHandPinky1
								{
									OFFSET -13.131393 -0.168503 -5.746925
									CHANNELS 3 Xrotation Yrotation Zrotation
									JOINT RightHandPinky2
									{
										OFFSET -2.849182 0.000000 0.000000
										CHANNELS 3 Xrotation Yrotation Zrotation
										JOINT RightHandPinky3
										{
											OFFSET -2.805038 0.000000 0.000000
											CHANNELS 3 Xrotation Yrotation Zrotation
											End Site
											{
												OFFSET 0.882500 2.642609 0.325652
											}
										}
									}
								}
							}
							JOINT Right_Sleeve
							{
								OFFSET -6.592125 -0.646545 0.805568
								CHANNELS 3 Xrotation Yrotation Zrotation
								End Site
								{
									OFFSET 0.000179 20.275787 -0.000000
								}
							}
						}
					}
				}
				JOINT Bind_Right_JacketString
				{
					OFFSET -3.534800 11.969597 7.200700
					CHANNELS 3 Xrotation Yrotation Zrotation
					JOINT Bind_Right_JacketString1
					{
						OFFSET -0.319900 -6.102600 2.794100
						CHANNELS 3 Xrotation Yrotation Zrotation
						End Site
						{
							OFFSET 0.000000 6.719452 0.000000
						}
					}
				}
				JOINT Bind_Left_JacketString
				{
					OFFSET 2.904800 11.969597 7.200700
					CHANNELS 3 Xrotation Yrotation Zrotation
					JOINT Bind_Left_JacketString1
					{
						OFFSET 0.364800 -5.904503 3.186800
						CHANNELS 3 Xrotation Yrotation Zrotation
						End Site
						{
							OFFSET 0.000000 6.719513 0.000000
						}
					}
				}
				JOINT HairE
				{
					OFFSET 5.915200 17.612701 -11.592200
					CHANNELS 3 Xrotation Yrotation Zrotation
					JOINT HairE1
					{
						OFFSET 0.289200 -7.171898 -1.284500
						CHANNELS 3 Xrotation Yrotation Zrotation
						End Site
						{
							OFFSET 0.000000 7.291756 0.000000
						}
					}
				}
				JOINT HairF
				{
					OFFSET -0.864800 17.612701 -11.592200
					CHANNELS 3 Xrotation Yrotation Zrotation
					JOINT HairF1
					{
						OFFSET 0.000000 -14.087097 -2.127501
						CHANNELS 3 Xrotation Yrotation Zrotation
						End Site
						{
							OFFSET 0.000000 14.246841 0.000000
						}
					}
				}
				JOINT HairG
				{
					OFFSET -8.087700 17.612701 -11.592200
					CHANNELS 3 Xrotation Yrotation Zrotation
					JOINT HairG1
					{
						OFFSET -0.293600 -6.081398 -0.910100
						CHANNELS 3 Xrotation Yrotation Zrotation
						End Site
						{
							OFFSET 0.000000 6.156120 0.000000
						}
					}
				}
			}
		}
	}
	JOINT Pouch
	{
		OFFSET 0.000000 4.394501 10.847300
		CHANNELS 3 Xrotation Yrotation Zrotation
		End Site
		{
			OFFSET 0.000000 21.880577 0.000000
		}
	}
	JOINT Bag
	{
		OFFSET -13.229000 4.813004 -0.593300
		CHANNELS 3 Xrotation Yrotation Zrotation
		End Site
		{
			OFFSET 0.000000 21.880577 0.000000
		}
	}
	JOINT OccupyGuyFacialAnim_Joint
	{
		OFFSET 1.000000 -70.206398 -1.655000
		CHANNELS 3 Xrotation Yrotation Zrotation
		End Site
		{
			OFFSET 0.000000 21.880577 0.000000
		}
	}
}
MOTION
Frames: 4
Frame Time: 0.033333
-1.133872 68.071213 0.709397 2.384977 -53.823687 -4.285592 -0.000000 -0.000001 0.000000 -29.224327 9.587563 21.714262 26.756677 9.857578 0.512790 2.133579 6.060662 -9.326744 -0.000000 -0.000001 -0.000000 -0.000002 0.000001 -0.000001 -10.904500 -13.965900 -9.518214 19.122984 8.653098 -0.920861 -7.543109 -11.039086 12.855837 -0.000000 -0.000001 0.000000 -0.000001 0.000000 -0.000000 2.388336 6.740147 2.375432 2.581947 7.881353 -0.409208 2.671944 7.864225 -0.586027 12.212376 6.819601 -4.410126 -0.365096 20.015914 8.159655 0.000002 -0.000000 -0.000000 0.000002 -0.000000 -0.000000 0.000002 -0.000000 0.000000 0.000002 -0.000000 -0.000001 0.000002 0.000000 -0.000000 0.000002 -0.000000 -0.000001 0.000002 0.000000 -0.000000 0.000002 -0.000000 -0.000000 0.000002 -0.000000 -0.000000 3.545105 4.822934 -11.655212 -53.752086 -32.860177 -50.417632 0.000357 -81.858506 0.000377 -58.549898 25.574632 38.600479 -14.557490 10.837944 12.229936 0.749539 -4.257833 13.305493 0.000001 0.000001 0.000000 -0.809535 2.578178 -31.496441 3.095874 5.163755 -61.866972 0.000001 0.000001 0.000002 -2.430863 1.729233 -41.460939 2.952364 5.084717 -60.259945 0.000001 -0.000000 -0.000001 -6.054139 -0.166609 -49.857584 3.046237 5.137044 -61.313952 -0.000001 0.000000 -0.000002 -8.298312 -6.522651 -38.520153 2.848780 5.024367 -59.084408 0.000001 0.000000 -0.000002 0.000002 0.000003 0.000001 -14.797589 1.958073 -4.839851 71.797753 139.289578 -51.969052 -0.000006 28.120024 0.000002 -49.529779 -6.789573 -31.083368 8.377145 -4.904148 11.022015 21.620195 -18.183898 -18.379209 -0.000000 -0.000001 0.000000 0.558948 -4.406608 25.436666 1.653036 -3.560316 49.799097 -0.000001 -0.000000 0.000000 10.969834 -12.875590 52.800822 6.387585 -4.324396 111.833686 -0.000000 -0.000000 -0.000001 3.705078 -7.151319 57.622454 5.328212 -4.608682 98.293437 0.000000 -0.000001 0.000001 0.474835 -5.173006 58.987672 3.194315 -4.421942 71.674168 -0.000001 0.000001 -0.000001 -0.000003 0.000001 0.000001 0.000001 0.000000 0.000000 0.000002 0.000002 -0.000000 0.000001 0.000000 0.000000 0.000001 0.000000 0.000000 0.000001 0.000000 0.000000 0.000002 0.000002 -0.000000 0.000001 0.000000 0.000000 0.000001 0.000000 0.000000 0.000001 0.000000 0.000000 0.000002 0.000002 -0.000000 -0.000000 -0.000001 0.000000 -0.000000 -0.000001 0.000000 -0.000000 -0.000001 0.000000 
-1.136754 68.104752 0.726780 2.404318 -53.857876 -4.227752 0.000001 -0.000002 -0.000000 -29.068640 9.602121 21.634136 26.546155 9.913735 0.500671 2.190062 6.111529 -9.318701 0.000000 0.000001 0.000000 -0.000000 0.000003 0.000002 -10.740711 -13.982475 -9.516205 18.766845 8.648164 -0.942632 -7.396346 -10.989904 12.939796 0.000000 0.000001 -0.000000 0.000000 -0.000002 -0.000001 2.375979 6.743876 2.335679 2.577648 7.886682 -0.409697 2.668190 7.868688 -0.584402 12.241946 6.819015 -4.417537 -0.352473 20.025556 8.119261 0.000001 0.000000 -0.000000 0.000001 0.000000 -0.000000 0.000001 0.000000 0.000000 0.000001 0.000000 0.000000 -0.000000 0.000001 -0.000000 0.000001 0.000000 0.000000 -0.000000 0.000001 -0.000000 0.000001 0.000000 -0.000000 0.000001 0.000000 -0.000000 3.517188 4.841895 -11.571928 -53.665606 -32.857612 -50.405416 0.000044 -81.865602 0.000064 -58.540329 25.383486 38.613645 -14.557490 10.837942 12.229940 0.749546 -4.257837 13.305495 -0.000000 0.000001 0.000001 -0.809536 2.578177 -31.496441 3.095876 5.163755 -61.866972 0.000000 0.000001 0.000002 -2.430864 1.729233 -41.460946 2.952364 5.084719 -60.259945 -0.000001 0.000001 -0.000001 -6.054140 -0.166609 -49.857581 3.046237 5.137046 -61.313952 -0.000001 0.000001 -0.000001 -8.298314 -6.522651 -38.520153 2.848782 5.024367 -59.084408 -0.000001 -0.000001 0.000001 0.000003 -0.000002 0.000003 -14.797796 1.949429 -4.843912 71.765822 139.242340 -51.952915 -0.000003 28.127925 -0.000005 -49.500618 -6.684262 -31.039644 8.377144 -4.904148 11.022013 21.620195 -18.183902 -18.379207 0.000000 -0.000002 0.000000 0.558947 -4.406609 25.436666 1.653036 -3.560316 49.799100 0.000000 -0.000001 0.000000 10.969835 -12.875591 52.800825 6.387586 -4.324397 111.833679 0.000000 -0.000001 0.000001 3.705079 -7.151322 57.622447 5.328212 -4.608683 98.293437 0.000002 0.000000 -0.000005 0.474834 -5.173005 58.987672 3.194316 -4.421943 71.674161 0.000001 0.000001 -0.000003 -0.000004 -0.000000 0.000003 -0.000000 0.000000 -0.000000 0.000000 0.000000 -0.000000 -0.000000 0.000000 -0.000000 -0.000000 0.000000 -0.000000 -0.000000 0.000000 -0.000000 0.000000 0.000000 -0.000000 -0.000000 0.000000 -0.000000 -0.000000 0.000000 -0.000000 -0.000000 0.000000 -0.000000 0.000000 0.000000 -0.000000 0.000001 -0.000002 -0.000000 0.000001 -0.000002 -0.000000 0.000001 -0.000002 -0.000000 
-1.136422 68.135109 0.739815 2.445573 -53.878848 -4.164818 -0.000000 0.000000 -0.000000 -28.948838 9.591891 21.557948 26.357522 9.911738 0.501784 2.258098 6.212227 -9.324114 -0.000000 -0.000002 0.000000 -0.000001 -0.000001 -0.000000 -10.590310 -13.980788 -9.492236 18.425026 8.643980 -0.974578 -7.251900 -10.979820 13.030129 -0.000000 -0.000000 0.000000 0.000001 -0.000001 -0.000001 2.362369 6.746355 2.305629 2.571832 7.888686 -0.409005 2.663029 7.869868 -0.581909 12.267244 6.821761 -4.425764 -0.361005 20.032919 8.118972 -0.000000 -0.000000 -0.000000 -0.000000 -0.000000 -0.000000 -0.000000 -0.000000 0.000000 -0.000000 -0.000000 0.000000 -0.000002 -0.000000 0.000001 -0.000000 -0.000000 0.000000 -0.000002 -0.000000 0.000001 -0.000000 -0.000000 -0.000000 -0.000000 -0.000000 -0.000000 3.507783 4.853374 -11.546127 -53.636926 -32.865655 -50.438686 -0.000066 -81.858137 -0.000103 -58.513384 25.242518 38.617333 -14.557490 10.837944 12.229939 0.749539 -4.257833 13.305490 -0.000001 0.000002 0.000001 -0.809536 2.578177 -31.496441 3.095874 5.163753 -61.866972 0.000001 0.000001 -0.000002 -2.430865 1.729233 -41.460946 2.952365 5.084717 -60.259945 0.000001 0.000000 0.000001 -6.054144 -0.166610 -49.857584 3.046238 5.137045 -61.313952 -0.000001 -0.000000 0.000004 -8.298314 -6.522650 -38.520153 2.848782 5.024369 -59.084408 0.000000 0.000001 0.000001 0.000002 0.000001 -0.000000 -14.804932 1.919998 -4.859560 71.696182 139.164954 -51.915978 -0.000019 28.142107 0.000004 -49.514572 -6.617578 -31.009172 8.377146 -4.904148 11.022014 21.620197 -18.183900 -18.379206 0.000002 -0.000001 0.000003 0.558948 -4.406609 25.436666 1.653036 -3.560316 49.799097 -0.000000 -0.000001 -0.000002 10.969835 -12.875592 52.800825 6.387583 -4.324397 111.833686 0.000001 0.000001 -0.000004 3.705080 -7.151321 57.622447 5.328212 -4.608682 98.293444 0.000001 -0.000001 -0.000000 0.474835 -5.173006 58.987679 3.194315 -4.421943 71.674168 -0.000001 -0.000000 0.000000 -0.000003 0.000003 0.000003 0.000000 0.000001 -0.000000 -0.000001 -0.000001 0.000000 0.000000 0.000001 -0.000000 0.000000 0.000001 -0.000000 0.000000 0.000001 -0.000000 -0.000001 -0.000001 -0.000000 0.000000 0.000001 -0.000000 0.000000 0.000001 -0.000000 0.000000 0.000001 -0.000000 -0.000001 -0.000001 -0.000000 -0.000000 0.000000 -0.000000 -0.000000 0.000000 -0.000000 -0.000000 0.000000 -0.000000 
-1.130275 68.155533 0.752502 2.492908 -53.882130 -4.124041 -0.000000 0.000001 -0.000000 -28.905115 9.594457 21.522155 26.243402 9.911584 0.504174 2.311313 6.240280 -9.317911 0.000000 0.000001 -0.000000 0.000003 -0.000006 -0.000002 -10.479901 -13.974301 -9.459669 18.161775 8.640416 -0.993404 -7.121025 -11.000213 13.092385 -0.000000 0.000002 -0.000000 -0.000000 0.000002 0.000001 2.351690 6.743737 2.305367 2.567775 7.883594 -0.397061 2.659471 7.864071 -0.568751 12.286376 6.827263 -4.437813 -0.399169 20.047947 8.120217 -0.000000 0.000001 0.000001 -0.000000 0.000001 0.000001 -0.000000 0.000001 0.000001 -0.000000 0.000001 -0.000000 -0.000000 0.000001 -0.000000 -0.000000 0.000001 -0.000000 -0.000000 0.000001 -0.000000 -0.000000 0.000001 0.000001 -0.000000 0.000001 0.000001 3.510772 4.855361 -11.556767 -53.624980 -32.875193 -50.478967 0.000458 -81.857174 0.000485 -58.520426 25.129864 38.660851 -14.557490 10.837949 12.229937 0.749542 -4.257834 13.305487 0.000001 -0.000002 0.000001 -0.809539 2.578178 -31.496444 3.095871 5.163755 -61.866979 0.000001 0.000002 0.000002 -2.430867 1.729233 -41.460946 2.952365 5.084717 -60.259952 0.000001 -0.000001 -0.000001 -6.054143 -0.166609 -49.857581 3.046239 5.137040 -61.313959 -0.000002 0.000001 0.000000 -8.298317 -6.522653 -38.520156 2.848781 5.024367 -59.084408 0.000001 -0.000001 -0.000001 0.000002 0.000000 0.000001 -14.813835 1.887823 -4.878906 71.587923 139.057884 -51.864328 0.000011 28.149721 -0.000022 -49.564292 -6.604454 -30.968153 8.377145 -4.904148 11.022014 21.620197 -18.183902 -18.379206 -0.000000 0.000000 0.000001 0.558948 -4.406608 25.436666 1.653036 -3.560315 49.799097 -0.000000 0.000000 -0.000001 10.969835 -12.875589 52.800829 6.387585 -4.324395 111.833686 0.000000 -0.000001 0.000002 3.705080 -7.151321 57.622454 5.328211 -4.608683 98.293444 0.000000 0.000000 -0.000004 0.474834 -5.173006 58.987672 3.194315 -4.421942 71.674168 -0.000001 0.000001 0.000001 -0.000003 0.000001 0.000001 -0.000000 0.000000 0.000000 -0.000000 0.000002 -0.000000 -0.000000 0.000000 -0.000000 -0.000000 0.000000 -0.000000 -0.000000 0.000000 0.000000 -0.000000 0.000002 -0.000000 -0.000000 0.000000 -0.000000 -0.000000 0.000000 -0.000000 -0.000000 0.000000 0.000000 -0.000000 0.000002 -0.000000 -0.000000 0.000001 -0.000000 -0.000000 0.000001 -0.000000 -0.000000 0.000001 -0.000000 
